<?xml version="1.0" encoding="utf-8"?>
<!-- Generator: Adobe Illustrator 25.3.1, SVG Export Plug-In . SVG Version: 6.00 Build 0)  -->
<svg version="1.1" xmlns="http://www.w3.org/2000/svg" xmlns:xlink="http://www.w3.org/1999/xlink" x="0px" y="0px"
	 viewBox="0 0 728.1 728" style="enable-background:new 0 0 728.1 728;" xml:space="preserve">
<style type="text/css">
	.st0{display:none;}
	.st1{display:inline;}
	.st2{fill:#2A2323;}
	.st3{fill:none;stroke:#FFFFFF;stroke-miterlimit:10;}
	.st4{fill:#E33522;}
</style>
<g id="bg" class="st0">
	<path class="st1" d="M0,0h728.1v728H0V0z"/>
</g>
<g id="cankao">
</g>
<g id="svg">
	<path class="st2" d="M106.1,0h5l6,4l1,2v34h14V5l3-3l4-2l5,1c0.9,0.6,5.5,3.1,6,4v35h13V6l3-4l5-2h5l4,2c3.5,1.3,1.6,35,2,38h14
		c-2.2-1.5-0.5-30.8-1-33l3-5l4-2l6,1l5,2v3h2v34h13V4h2V2l5-2l5,1c0.9,0.6,5.5,3.1,6,4v35h13V6l4-4l4-2l6,1l5,3v36h15V3l5-3h6
		c0.8,0.6,6.6,4.2,7,5v34l13,1c0.4-3-1.5-36.7,2-38l4-2h5l6,2c3.5,1.3,1.6,35,2,38l11-1V7l3-5l6-2l5,1c0.9,0.6,5.5,3.1,6,4v35h15V2
		l6-2h5l6,4v36h15V3l5-3h6c0.8,0.6,6.6,4.2,7,5v35h13V4l6-4h7l4,2c3.5,1.3,1.6,35,2,38l13-1V5l3-3l4-2c2.8,0.4,8.3,2,11,3v37h15V3
		l7-3l5,1l5,3l1,2v33l13,1c0.4-3-1.5-36.7,2-38l6-2l6,1l5,3v36h13V5l3-3l4-2h6l5,3l2,4v31l-1,2h14V4l6-4h5l6,2v38h30l10,4l9,6l3,4
		l6,10l2,6v30h36l2,2v13l-4,3h-34v14h35l3,3v12l-3,3h-35v13h35l3,2v15c-1.3,3.5-35,1.6-38,2v13h33l5,3v15h-4v2h-34v13h36l2,2v13
		l-3,3h-35v13c3,0.4,36.7-1.5,38,2v15l-2,2h-36v13h34l4,3v14l-5,3h-33v13h36l2,2v13l-4,3h-34v14h35l3,3v14l-1,1h-37v14
		c2.1,0.2,37.6-0.6,38,1v15l-3,2h-35v13h33l5,3v14l-4,3h-34v13h36l2,2v15l-2,1h-36v14h37l1,1v15l-2,2h-36v13h34c0.6,0.4,3.3,2.4,4,3
		v14l-3,3h-35v13h36c0.3,0.3,0.7,0.7,1,1c0.3,0.3,0.7,0.7,1,1v15c-0.3,1.7-35.5,0.8-37,1l-1,14h35l3,2v13l-3,3h-35v14
		c2.1,0.2,37.6-0.6,38,1v15l-3,2h-35v30c-1.8,4.2-6.1,13.6-9,17l-5,5l-6,4c-0.9,0.4-9.9,2.8-10,4h-30v36l-2,2h-13l-2-2v-36h-14l1,2
		v29l-3,7h-14l-3-3v-35h-13c-0.4,3,1.5,36.7-2,38h-13l-4-4v-34l-13,1v33l-3,4h-13l-2-2v-36h-15v38h-15l-3-3v-35h-13
		c-0.4,3,1.5,36.7-2,38h-15c-3.5-1.3-1.6-35-2-38h-13v35l-3,3h-14l-1-1v-37h-15v36l-2,2h-13l-2-2v-36h-15v35l-3,3h-12l-5-5v-32
		l-11-1v34l-4,4h-13c-3.5-1.3-1.6-35-2-38l-13,1v34l-3,3h-14l-1-1v-37h-15v36l-2,2h-13l-4-6v-32h-13v35l-3,3h-13v-2h-2v-36h-13v34
		l-3,4h-14l-3-5v-31l1-2h-14c-0.4,3,1.5,36.7-2,38h-15c-3.5-1.3-1.6-35-2-38h-13v35l-3,3h-12l-3-3v-35h-14v34l-3,4h-13l-2-2v-36h-30
		c-3.7-1.5-13.9-5.6-17-8l-4-4l-3-3l-4-7l-2-6v-32h-36l-4-5v-8l4-5h36v-14h-37l-3-5v-8l3-5h37l-1-14h-34l-5-4v-10l4-4h36v-13h-35
		l-5-5v-10l2-3h4v-2h34v-13h-37l-3-5v-8l3-5h37v-14h-36l-2-1l-2-4v-8l3-5h37v-13h-34v-2l-4-1l-2-2v-10l5-5h35v-13h-36l-4-4v-8l3-5
		l2-1h34l1-14h-37l-3-3v-10l5-5h35l-1-14h-34c-5.9-5.4-5-5.4-5-13l4-5h36v-13h-35l-5-5v-10l2-3h4v-2h34v-13h-37l-3-5v-9l4-5h36v-13
		h-37l-3-5v-8l3-5h37v-13h-34v-2l-4-1l-2-2v-10l5-5h35v-13h-34l-6-4v-10l4-5h36v-13h-35l-5-5v-10l3-1v-2h37v-14h-36l-4-5v-8l4-5h36
		V68l4-10l9-10l9-6l7-1l1-1h30V4L106.1,0z"/>
</g>
<g id="miaobian">
	<path class="st3" d="M690.1,118v14h35l3,3v12l-3,3h-35v13h35l3,2v15c-1.2,3.5-35,1.6-38,2v13h33l5,3v15h-4v2h-34v13h36l2,2v13l-3,3
		h-35v13c3,0.4,36.7-1.5,38,2v15l-2,2h-36v13h34l4,3v14l-5,3h-33v13h36l2,2v13l-4,3h-34v14h35l3,3v14l-1,1h-37v14
		c2.1,0.2,37.6-0.6,38,1v15l-3,2h-35v13h33l5,3v14l-4,3h-34v13h36l2,2v15l-2,1h-36v14h37l1,1v15l-2,2h-36v13h34c0.6,0.4,3.3,2.4,4,3
		v14l-3,3h-35v13h36c0.3,0.3,0.7,0.7,1,1c0.3,0.3,0.7,0.7,1,1v15c-0.3,1.7-35.5,0.8-37,1l-1,14h35l3,2v13l-3,3h-35v14
		c2.1,0.2,37.6-0.6,38,1v15l-3,2h-35v30c-1.8,4.2-6.1,13.6-9,17l-5,5l-6,4c-0.9,0.4-9.9,2.8-10,4h-30v36l-2,2h-13l-2-2v-36h-14l1,2
		v29l-3,7h-14l-3-3v-35h-13c-0.4,3,1.5,36.7-2,38h-13l-4-4v-34l-13,1v33l-3,4h-13l-2-2v-36h-15v38h-15l-3-3v-35h-13
		c-0.4,3,1.5,36.7-2,38h-15c-3.5-1.3-1.6-35.1-2-38h-13v35l-3,3h-14l-1-1v-37h-15v36l-2,2h-13l-2-2v-36h-15v35l-3,3h-12l-5-5v-32
		l-11-1v34l-4,4h-13c-3.5-1.3-1.6-35.1-2-38l-13,1v34l-3,3h-14l-1-1v-37h-15v36l-2,2h-13l-4-6v-32h-13v35l-3,3h-13v-2h-2v-36h-13v34
		l-3,4h-14l-3-5v-31l1-2h-14c-0.4,3,1.5,36.7-2,38h-15c-3.5-1.3-1.6-35.1-2-38h-13v35l-3,3h-12l-3-3v-35h-14v34l-3,4h-13l-2-2v-36
		h-30c-3.7-1.5-13.9-5.6-17-8l-7-7l-4-7l-2-6v-32h-36l-4-5v-8l4-5h36v-14h-37l-3-5v-8l3-5h37l-1-14h-34l-5-4v-10l4-4h36v-13h-35
		l-5-5v-10l2-3h4v-2h34v-13h-37l-3-5v-8l3-5h37v-14h-36l-2-1l-2-4v-8l3-5h37v-13h-34v-2l-4-1l-2-2v-10l5-5h35v-13h-36l-4-4v-8l3-5
		l2-1h34l1-14h-37l-3-3v-10l5-5h35l-1-14h-34c-5.9-5.4-5-5.4-5-13l4-5h36v-13h-35l-5-5v-10l2-3h4v-2h34v-13h-37l-3-5v-9l4-5h36v-13
		h-37l-3-5v-8l3-5h37v-13h-34v-2l-4-1l-2-2v-10l5-5h35v-13h-34l-6-4v-10l4-5h36v-13h-35l-5-5v-10l3-1v-2h37v-14h-36l-4-5v-8l4-5h36
		V68l4-10l9-10l9-6l7-1l1-1h30V4l6-4h5l6,4l1,2v34h14V5l3-3l4-2l5,1c0.9,0.6,5.5,3.1,6,4v35h13V6l3-4l5-2h5l4,2c3.5,1.3,1.6,35,2,38
		h14c-2.2-1.5-0.5-30.8-1-33l3-5l4-2l6,1l5,2v3h2v34h13V4h2V2l5-2l5,1c0.9,0.6,5.5,3.1,6,4v35h13V6l4-4l4-2l6,1l5,3v36h15V3l5-3h6
		c0.8,0.6,6.6,4.2,7,5v34l13,1c0.4-3.1-1.5-36.7,2-38l4-2h5l6,2c3.5,1.3,1.6,35,2,38l11-1V7l3-5l6-2l5,1c0.9,0.6,5.5,3.1,6,4v35h15
		V2l6-2h5l6,4v36h15V3l5-3h6c0.8,0.6,6.6,4.2,7,5v35h13V4l6-4h7l4,2c3.5,1.3,1.6,35,2,38l13-1V5l3-3l4-2c2.8,0.4,8.3,2,11,3v37h15V3
		l7-3l5,1l5,3l1,2v33l13,1c0.4-3.1-1.5-36.7,2-38l6-2l6,1l5,3v36h13V5l3-3l4-2h6l5,3l2,4v31l-1,2h14V4l6-4h5l6,2v38h30l10,4l9,6l3,4
		l6,10l2,6v30h36l2,2v13l-4,3H690.1z"/>
</g>
<g id="text">
	<g>
		<path class="st4" d="M110,370.8c1.7-4.3,4.2-7.7,7.5-10.3c3.2-2.6,7-4.4,11.3-5.5c4.3-1.1,9.2-1.6,14.6-1.6
			c3.8,0,7.9,0.2,12.2,0.7c0-5-0.1-9-0.4-11.8c-0.2-2.8-0.8-5.4-1.8-7.7c-1-2.3-2.6-4.1-4.8-5.3c-2.2-1.3-5.3-1.9-9.1-1.9
			c-5.2,0-9.8,0.9-13.9,2.6c-4.1,1.7-7.7,4.1-11,6.9c-0.6-3.1-1.2-5.6-1.9-7.4c-0.7-1.8-1.6-3.7-2.8-5.6l0.5-0.2
			c4.3-2.3,8.9-4.1,13.7-5.6c4.8-1.4,10.6-2.2,17.5-2.2c5.9,0,10.7,0.7,14.4,2.1c3.7,1.4,6.6,3.4,8.6,5.9c2,2.6,3.3,5.6,4.1,9.2
			c0.7,3.5,1.1,7.8,1.1,12.9l-0.4,39.4c0,6.2,0.1,11.2,0.4,14.9c0.2,3.7,0.5,6.5,0.9,8.4c0.4,1.9,0.8,3.3,1.4,4.2
			c0.5,0.9,1.2,1.7,2.1,2.3c-0.4,0-1.6-0.1-3.6-0.2c-2-0.2-3.3-0.4-3.8-0.4c-2.2,0-4.1,0.1-5.7,0.2c-1.6,0.1-3.3,0.2-5,0.4
			c-0.1-1.3-0.2-3.5-0.4-6.7c-0.1-3.1-0.2-7.5-0.2-13.1c-1.4,3.1-2.8,5.7-4,7.7c-1.2,2-2.8,4.1-4.7,6c-1.9,2-4.3,3.6-7,4.9
			c-2.8,1.3-6,1.9-9.7,1.9c-3.7,0-7.1-0.7-10.1-2.2c-4.4-2.3-7.7-5.9-9.7-10.7c-2-4.9-3.1-10.4-3.1-16.7
			C107.4,380.3,108.3,375,110,370.8z M122.3,389.1c0.2,1.8,0.7,3.7,1.6,5.8c0.9,2,2.3,3.8,4.2,5.3c1.9,1.5,4.5,2.3,7.7,2.3
			c0.7,0,1.6-0.1,2.7-0.3c1.1-0.2,2.4-0.6,4-1.4c1.6-0.7,3.2-1.9,4.9-3.4c1.7-1.6,3.1-3.7,4.3-6.3c1.6-3.4,2.6-7.1,3.1-11.1
			c0.5-4,0.8-9.5,0.9-16.3l-8.6-0.4c-2.6,0-5.1,0.1-7.5,0.4c-2.3,0.2-4.4,0.7-6.2,1.4c-3.4,1.2-6.1,3.3-8.2,6.3
			c-2.1,3-3.2,7.2-3.2,12.6C122,385.6,122.1,387.3,122.3,389.1z"/>
		<path class="st4" d="M203.8,340.4c3.5-8.6,7.8-15,12.9-19c5.1-4,10.6-6.2,16.5-6.6c-0.7,2.6-1.3,5.3-1.6,8.1
			c-0.4,2.8-0.6,5.4-0.7,7.9c-1.6-0.4-3.1-0.5-4.5-0.5c-1.1,0-2.5,0.2-4.2,0.5c-1.7,0.4-3.8,1.3-6.2,2.9c-2.4,1.6-4.6,4-6.6,7.4
			c-2,3.4-3.3,7.9-4.1,13.5c-0.2,2.5-0.5,5.6-0.6,9.1c-0.2,3.5-0.3,7.4-0.5,11.6c-0.2,7.6-0.4,13.8-0.4,18.6c0,4.8,0.1,9,0.5,12.6
			c0.3,3.6,1,6.5,2.1,8.8c-3.2-0.6-6.2-0.9-9-0.9c-2.4,0-5.2,0.2-8.5,0.7c-0.8,0.1-1.5,0.2-2,0.2c0.5-1.2,0.8-2.2,1.1-3
			c0.2-0.8,0.4-1.8,0.5-3.2c0.1-1.3,0.2-3.3,0.4-5.9c0.1-2.6,0.2-5.6,0.4-8.8l0.4-14.2V361c0-10.7,0-17.6-0.1-20.7
			c-0.1-3.1-0.3-5.9-0.6-8.5c-0.4-3.4-1-6-2-7.9c-1-1.9-2.6-3.4-4.9-4.3c4.3-0.1,8.3-0.5,11.8-1.2c3.5-0.7,7.2-1.7,10.9-3.2
			L203.8,340.4z"/>
		<path class="st4" d="M289.3,317.7c2.6,1.3,4.7,2.9,6.1,4.9c1.4,1.9,2.4,3.8,3,5.7c0.5,1.9,1,3.8,1.4,5.7v0.2l0.2-0.4
			c1.2-2.3,2.4-4.3,3.5-6.1c1.1-1.8,2.7-3.6,4.8-5.5c2-1.9,4.6-3.4,7.6-4.6c3-1.2,6.5-1.8,10.4-1.8c4.6,0,8.2,0.9,11,2.6
			c2.8,1.7,4.7,4,5.9,6.7c1.1,2.7,1.9,5.5,2.2,8.3c0.3,2.8,0.5,6.2,0.5,10.2v49.2c0,6,0.2,10.7,0.5,14c0.4,3.4,1.1,6.2,2.2,8.6
			c-2-0.4-3.8-0.6-5.4-0.7c-1.6-0.1-3.7-0.2-6.5-0.2c-1.8,0-3.3,0.1-4.5,0.2c-1.2,0.1-2.6,0.4-4.1,0.7l0.2-0.4
			c0.7-1.6,1.3-3.1,1.6-4.7c0.4-1.6,0.6-4.3,0.7-8.3l0.5-16v-38c0-6.5-0.9-11.3-2.7-14.5c-1.8-3.2-5.2-4.8-10.1-4.8
			c-3,0-5.6,0.6-7.8,1.7c-2.2,1.1-4,2.6-5.3,4.4c-1,1.3-1.7,2.6-2.2,3.8c-0.5,1.2-0.9,2.8-1.2,4.9c-0.3,2-0.5,5-0.6,8.7
			c-0.1,3.8-0.2,8.9-0.4,15.4v17.5c0,5.8,0,10.3,0.1,13.7c0.1,3.4,0.1,6.1,0.3,8.1c0.2,3.7,0.8,6.5,1.8,8.5
			c-1.9-0.4-3.5-0.6-4.7-0.7c-1.2-0.1-3-0.2-5.4-0.2c-2.4,0-4.2,0.1-5.3,0.2c-1.1,0.1-2.6,0.4-4.2,0.7c0.5-1.3,0.9-3.2,1.2-5.6
			c0.3-2.4,0.5-5,0.7-7.8c0.2-2.8,0.3-5.7,0.5-8.7c0.1-3,0.2-5.4,0.2-7.2v-0.5l0.2-20.9c0-13.9-0.7-23.3-2.2-28.2s-5.3-7.3-11.7-7.3
			c-3.6,0-6.5,0.8-8.7,2.5c-2.2,1.7-3.9,3.9-5,6.7c-1.1,2.8-1.8,5.9-2.2,9.4c-0.4,3.5-0.5,7.5-0.5,12.1v39.6c0,3.7,0.1,6.8,0.3,9.2
			c0.2,2.4,0.6,4.7,1.4,6.8c-1.3-0.4-2.6-0.6-4-0.7c-1.3-0.1-3-0.2-5-0.2c-3.5,0-7,0.3-10.4,0.9c0.8-1.6,1.4-3.2,1.8-5
			c0.4-1.7,0.7-5,0.9-9.8c0.4-4.9,0.5-9.8,0.5-14.6l-0.2-3.8c0-1.3,0-2.7,0-4.1v-20.4c0-7.9-0.1-14.1-0.3-18.6
			c-0.2-4.5-0.5-8-1.1-10.6c-0.5-2.6-1.3-4.5-2.3-5.9c-1-1.3-2.4-2.4-4.2-3.2c3.5-0.1,7-0.5,10.5-1.2c3.5-0.7,7.5-1.9,11.8-3.7V334
			v-0.2c1-2.2,2-4.1,3-5.9c1-1.7,2.4-3.6,4.2-5.5c1.8-1.9,4.1-3.5,7-4.8c2.9-1.3,6.2-1.9,9.9-1.9
			C283.4,315.8,286.7,316.4,289.3,317.7z"/>
		<path class="st4" d="M427.5,375.2c-0.9,6.1-2.8,12.4-5.7,18.7c-2.9,6.4-7.2,11.7-13,16c-5.8,4.3-13.2,6.5-22.3,6.5
			c-5.2,0-9.8-0.3-13.9-1c-4.1-0.7-8-1.8-11.7-3.3c0.7-1.9,1.3-4.4,1.6-7.6c0.4-3.1,0.5-8.3,0.5-15.5c0.1-5.5,0.2-15.8,0.2-30.8
			c0.1-14.6,0.2-25.3,0.2-31.9c0-8-0.1-14.5-0.4-19.5c-0.2-4.9-0.7-8.8-1.3-11.5c-0.6-2.8-1.4-4.7-2.3-5.9c-0.9-1.2-2.1-2.2-3.5-2.9
			c4.3-0.4,8.2-1,11.5-1.9c3.4-0.9,7.1-2.5,11.3-4.8c-0.2,3-0.5,7.1-0.6,12.2c-0.2,5.1-0.3,10.3-0.5,15.7
			c-0.1,5.3-0.2,10.9-0.3,16.6c-0.1,5.7-0.1,10.5-0.1,14.5c1-3,1.9-5.6,2.9-7.8c1-2.2,2.3-4.5,4.1-6.8s4.2-4.3,7.1-5.9
			c2.9-1.6,6.4-2.3,10.4-2.3c6.2,0,11.2,1.7,14.9,5.2c3.7,3.5,6.4,7.7,8.1,12.6c1.7,4.9,2.7,9.4,3.2,13.5c0.4,4.1,0.6,7.8,0.6,11.2
			C428.9,363.5,428.4,369.1,427.5,375.2z M412,348.1c-1-4.4-2.3-7.9-3.9-10.5c-1.6-2.6-3.5-4.6-5.5-5.8c-2-1.2-4.2-1.8-6.5-1.8
			c-3.6,0-6.7,1.4-9.3,4.1c-2.6,2.8-4.5,6.2-5.9,10.3v0.2c-0.5,1.3-0.9,2.8-1.2,4.4c-0.3,1.6-0.6,3.8-0.9,6.7
			c-0.3,2.8-0.5,6.6-0.7,11.4c-0.2,4.8-0.3,10.6-0.3,17.3c0,6.7,0.1,11.4,0.3,14c0.2,2.6,0.5,5,0.8,7.1c2.9,0.7,5.6,1.1,8.3,1.1
			c5.2,0,9.5-1.2,13-3.7c3.5-2.5,6.2-5.7,8-9.7c1.9-4,3.2-8.5,4-13.4c0.8-4.9,1.2-10.1,1.2-15.7C413.4,357.8,412.9,352.5,412,348.1z
			"/>
		<path class="st4" d="M445.5,368.4c0-7,0-11.9,0-14.8c0-6.7,0-12-0.1-15.8c-0.1-3.8-0.2-6.3-0.5-7.5c-0.4-3.1-0.9-5.3-1.7-6.6
			c-0.8-1.3-1.9-2.3-3.3-3.2c6.1-0.7,10.6-1.5,13.5-2.4c2.9-0.9,5.6-2,8.3-3.3l-0.5,3.4c-0.2,1.8-0.5,4.4-0.6,7.8s-0.3,7.5-0.5,12.2
			c-0.2,7.6-0.4,17-0.4,28.3c0,5,0.1,10.7,0.2,17.1c0,2.6,0,4.1,0,4.3v1.8c0.1,6.4,0.4,11.6,0.8,15.7c0.4,4.1,1.4,7.4,2.8,9.9h-0.2
			c-1.8-0.2-3.4-0.5-4.9-0.6s-3.1-0.3-5-0.3c-2.3,0-4.3,0.1-6,0.3c-1.7,0.2-3.6,0.4-5.5,0.6c1.4-2.5,2.4-5.7,2.8-9.5
			c0.4-3.8,0.6-10.3,0.6-19.5C445.3,384,445.3,378,445.5,368.4z M457.1,286c1.1,0.8,2,1.8,2.5,3c0.5,1.2,0.9,2.3,1,3.4
			c0.1,1.1,0.2,2.3,0.2,3.6c-0.1,3-0.5,5.3-1.3,6.8c-0.6,1.3-1.5,2.3-2.6,3.1c-1.1,0.7-2.7,1.1-4.6,1.1c-2.9,0-5.1-1-6.6-3
			c-1.5-2-2.3-4.5-2.3-7.7c0-3.2,0.7-6,2.2-8.2c1.4-2.2,3.7-3.3,6.8-3.3C454.4,284.8,455.9,285.2,457.1,286z"/>
		<path class="st4" d="M477.8,370.8c1.7-4.3,4.2-7.7,7.5-10.3c3.2-2.6,7-4.4,11.3-5.5s9.2-1.6,14.6-1.6c3.8,0,7.9,0.2,12.2,0.7
			c0-5-0.1-9-0.4-11.8c-0.2-2.8-0.8-5.4-1.8-7.7c-1-2.3-2.6-4.1-4.8-5.3c-2.2-1.3-5.3-1.9-9.1-1.9c-5.2,0-9.8,0.9-13.9,2.6
			c-4.1,1.7-7.7,4.1-11,6.9c-0.6-3.1-1.2-5.6-1.9-7.4c-0.7-1.8-1.6-3.7-2.8-5.6l0.5-0.2c4.3-2.3,8.9-4.1,13.7-5.6
			c4.8-1.4,10.6-2.2,17.5-2.2c5.9,0,10.7,0.7,14.4,2.1c3.7,1.4,6.6,3.4,8.6,5.9c2,2.6,3.3,5.6,4.1,9.2c0.7,3.5,1.1,7.8,1.1,12.9
			l-0.4,39.4c0,6.2,0.1,11.2,0.4,14.9c0.2,3.7,0.5,6.5,0.9,8.4c0.4,1.9,0.8,3.3,1.3,4.2c0.5,0.9,1.2,1.7,2.1,2.3
			c-0.4,0-1.6-0.1-3.6-0.2c-2-0.2-3.3-0.4-3.8-0.4c-2.2,0-4.1,0.1-5.7,0.2s-3.3,0.2-5,0.4c-0.1-1.3-0.2-3.5-0.4-6.7
			c-0.1-3.1-0.2-7.5-0.2-13.1c-1.4,3.1-2.8,5.7-4,7.7c-1.2,2-2.8,4.1-4.7,6c-1.9,2-4.3,3.6-7,4.9c-2.8,1.3-6,1.9-9.7,1.9
			c-3.7,0-7.1-0.7-10.1-2.2c-4.4-2.3-7.7-5.9-9.7-10.7c-2-4.9-3.1-10.4-3.1-16.7C475.2,380.3,476,375,477.8,370.8z M490,389.1
			c0.2,1.8,0.7,3.7,1.6,5.8c0.9,2,2.3,3.8,4.2,5.3c1.9,1.5,4.5,2.3,7.7,2.3c0.7,0,1.6-0.1,2.7-0.3c1.1-0.2,2.4-0.6,4-1.4
			c1.6-0.7,3.2-1.9,4.9-3.4c1.7-1.6,3.1-3.7,4.3-6.3c1.6-3.4,2.6-7.1,3.1-11.1c0.5-4,0.8-9.5,0.9-16.3l-8.6-0.4
			c-2.6,0-5.1,0.1-7.5,0.4c-2.3,0.2-4.4,0.7-6.2,1.4c-3.4,1.2-6.1,3.3-8.2,6.3c-2.1,3-3.2,7.2-3.2,12.6
			C489.8,385.6,489.9,387.3,490,389.1z"/>
		<path class="st4" d="M609.2,318.2c3.2,1.6,5.6,3.7,7,6.3c1.4,2.6,2.3,5.3,2.7,8.1c0.4,2.8,0.5,6.1,0.5,9.8V397
			c0,8.4,0.9,14.5,2.7,18.4l-1.8-0.2c-1.8-0.2-3.4-0.4-4.8-0.5c-1.4-0.1-3-0.1-5-0.1c-1.6,0-2.9,0.1-4.1,0.2
			c-1.1,0.1-2.7,0.3-4.6,0.5l0.2-0.4c0.2-0.7,0.5-1.6,0.8-2.6c0.3-1,0.6-2.5,0.8-4.6c0.2-2,0.5-4.9,0.6-8.6
			c0.2-3.7,0.3-8.2,0.3-13.6v-36.6c0-3.6-0.1-6.6-0.4-9c-0.2-2.4-0.8-4.6-1.7-6.5c-0.9-1.9-2.3-3.4-4.2-4.5
			c-1.9-1.1-4.5-1.6-7.7-1.6c-2.5,0-5.1,0.4-7.7,1.3c-2.6,0.8-4.8,2.7-6.8,5.6c-1.3,1.8-2.3,3.8-3.1,5.9s-1.2,5-1.5,8.4
			c-0.3,3.4-0.5,7.5-0.5,12.2c-0.1,4.7-0.1,12.1-0.1,22.2v0.7c0.1,7.3,0.2,12.2,0.2,14.8c0,2.5,0.1,4.8,0.3,6.8
			c0.2,2,0.4,3.8,0.6,5.2c0.2,1.4,0.7,3.1,1.3,4.9c-3.8-0.5-7.3-0.7-10.4-0.7c-2.5,0-5.3,0.2-8.5,0.5c-0.4,0.1-0.7,0.2-0.9,0.2
			c0.7-1.7,1.2-3.5,1.5-5.6c0.3-2,0.5-5,0.6-8.8c0.1-3.5,0.2-9.3,0.4-17.4c0.1-8.1,0.2-15.9,0.2-23.3c0-7.6-0.1-13.9-0.2-18.9
			c-0.1-5-0.4-8.8-0.7-11.2c-0.4-3-0.9-5.2-1.5-6.5c-0.7-1.3-1.6-2.5-2.8-3.4l-0.2-0.2c5-0.4,8.9-0.9,11.5-1.7
			c2.6-0.8,5.4-2,8.3-3.5v18.9c0.7-2,1.6-4,2.6-5.9c1-1.9,2.5-3.7,4.3-5.6c1.9-1.9,4.3-3.4,7.4-4.7s6.8-1.9,11.1-1.9
			C601.5,315.8,605.9,316.6,609.2,318.2z"/>
	</g>
</g>
</svg>
